{"title":"Bangbus - Isabelle MP4 {2bUnique}","uid":9908636,"size":1593844932,"categoryP":"porn","categoryS":"movies","magnet":"?xt=urn:btih:14c24452f043cc336649b3fbc547c39f8b4b52bc&amp;dn=Bangbus+-+Isabelle+MP4+%7B2bUnique%7D&amp;tr=udp%3A%2F%2Ftracker.openbittorrent.com%3A80&amp;tr=udp%3A%2F%2Fopen.demonii.com%3A1337&amp;tr=udp%3A%2F%2Ftracker.coppersurfer.tk%3A6969&amp;tr=udp%3A%2F%2Fexodus.desync.com%3A6969","seeders":0,"leechers":1,"uploader":"2bUnique","files":1,"time":1396851377,"description":" &lt;a href=&quot;http://www.bangbus.com/t5/pps=sweet69/porn-videos/isabelle_bbisabelle.html#play&quot; rel=&quot;nofollow&quot; target=&quot;_NEW&quot;&gt;http://www.bangbus.com/t5/pps=sweet69/porn-videos/isabelle_bbisabelle.html#play&lt;/a&gt;\n\n\nAnyone, who knows anything about Ugly and I, knows that we live, breathe, sleep, jack off and die for latinas. They are the crown jewel of women to us. So we took Shane out again to go latina shopping and we found Isabelle walking with a bag of groceries. Ugly almost ran her off the road just to get 3 seconds of her attention. When she finally stopped I asked if she needed any help with her bag, &quot;NO, who the fuck are you guys!&quot; We're art students completely harmless, and who wouldn't trust an artist? It took some playful rebounding but then she was ok to let us give her a ride (it wasn't easy and was actually the most difficult so far). As we settle in the bus naturally the first thing I do is go for the bag and what did we find? big ol bananas and a cucumber, funny aye? so I asked her to show me how she gives head with the bannana. The thing is that no girl will show you stuff like that unless you try them and it worked as usual. God, did I wish that I was that bananna. This latina looked like she could suck some cock and she did, Shane's cock that is, and man there's nothing more intense then a latina on her knees where she belongs sucking fat dick. I have to say that the one thing I love to do is to have a bitch hum the bang bus theme song, 'the wheels on the bus go round and round' with a dick in their mouth. And well, after that I'm just ready to see this chick get stuffed. Did I mention the fact that this chick had the biggest pair of titties I'd ever seen, double d's. They were round, hard and delicious; so you'll notice that even I took a poke at them as this bitch got stuffed. She was riding shane and I wacked her in the ass with one of her banannas. I wanted to stuff it in her ass but I held back. We turned her over and stuffed her from behind which she took until I'd had enough and deemed her worthy to have a load blown on her cute little slut face. When Shane blew, that shit ran down her face like white blood and Isabelle knew, like all the other bitches we've slammed, that she was now property of the bang bus...\n\nGeneral\n\nFormat : MPEG-4\nFormat profile : Base Media\nCodec ID : isom\nFile size : 1.48 GiB\nDuration : 59mn 32s\nOverall bit rate mode : Variable\nOverall bit rate : 3 569 Kbps\nGenre : m\nEncoded date : UTC 2014-04-06 22:06:05\nTagged date : UTC 2014-04-06 22:06:05\n\n\nVideo\nID : 1\nFormat : AVC\nFormat/Info : Advanced Video Codec\nFormat profile : &lt;a class=&quot;__cf_email__&quot; href=&quot;/cdn-cgi/l/email-protection&quot; data-cfemail=&quot;3e7c5f4d5b5257505b7e720d100f&quot;&gt;[email&amp;#160;protected]&lt;/a&gt;&lt;script cf-hash='f9e31' type=&quot;text/javascript&quot;&gt;\n/* &lt;![CDATA[ */!function(){try{var t=&quot;currentScript&quot;in document?document.currentScript:function(){for(var t=document.getElementsByTagName(&quot;script&quot;),e=t.length;e--;)if(t[e].getAttribute(&quot;cf-hash&quot;))return t[e]}();if(t&amp;&amp;t.previousSibling){var e,r,n,i,c=t.previousSibling,a=c.getAttribute(&quot;data-cfemail&quot;);if(a){for(e=&quot;&quot;,r=parseInt(a.substr(0,2),16),n=2;a.length-n;n+=2)i=parseInt(a.substr(n,2),16)^r,e+=String.fromCharCode(i);e=document.createTextNode(e),c.parentNode.replaceChild(e,c)}}}catch(u){}}();/* ]]&gt; */&lt;/script&gt;\nFormat settings, CABAC : No\nFormat settings, ReFrames : 2 frames\nFormat settings, GOP : M=1, N=12\nCodec ID : avc1\nCodec ID/Info : Advanced Video Coding\nDuration : 59mn 32s\nBit rate : 3 473 Kbps\nWidth : 1 280 pixels\nHeight : 720 pixels\nDisplay aspect ratio : 16:9\nFrame rate mode : Constant\nFrame rate : 29.970 fps\nStandard : NTSC\nColor space : YUV\nChroma subsampling : 4:2:0\nBit depth : 8 bits\nScan type : Progressive\nBits/(Pixel*Frame) : 0.126\nStream size : 1.44 GiB (97%)\n\n\nAudio\nID : 2\nFormat : AAC\nFormat/Info : Advanced Audio Codec\nFormat profile : LC\nCodec ID : 40\nDuration : 59mn 32s\nBit rate mode : Variable\nBit rate : 90.5 Kbps\nChannel(s) : 2 channels\nChannel positions : Front: L R\nSampling rate : 48.0 KHz\nCompression mode : Lossy\nStream size : 38.5 MiB (3%)","torrent":{"xt":"urn:btih:14c24452f043cc336649b3fbc547c39f8b4b52bc","amp;dn":"Bangbus+-+Isabelle+MP4+%7B2bUnique%7D","amp;tr":["udp%3A%2F%2Ftracker.openbittorrent.com%3A80","udp%3A%2F%2Fopen.demonii.com%3A1337","udp%3A%2F%2Ftracker.coppersurfer.tk%3A6969","udp%3A%2F%2Fexodus.desync.com%3A6969"],"infoHash":"14c24452f043cc336649b3fbc547c39f8b4b52bc","infoHashBuffer":{"type":"Buffer","data":[20,194,68,82,240,67,204,51,102,73,179,251,197,71,195,159,139,75,82,188]},"announce":[],"urlList":[]}}